<svg width="181" height="46" fill="none" xmlns="http://www.w3.org/2000/svg"><path d="M.938 45V1.25h7V45h-7zm10.187-19.75v-6.813h4.188c3.041 0 4.687-1.479 4.937-4.437v-.75c-.292-3.292-1.938-5.02-4.938-5.188h-4.187V1.25h4.75c7.583.125 11.396 4.083 11.438 11.875 0 6.042-1.917 9.813-5.75 11.313-1.584.541-3.48.812-5.688.812h-4.75zm19.625 7.563V12.25c0-2.208.938-4.458 2.813-6.75 2.5-3 5.666-4.52 9.5-4.563v6.938c-2.167.042-3.792 1.208-4.876 3.5-.333.75-.5 1.375-.5 1.875v19.563c0 2.25 1.167 3.916 3.5 5 .709.333 1.313.5 1.813.5v7c-2.375 0-4.75-.855-7.125-2.563-3.375-2.5-5.083-5.813-5.125-9.938zm15.688 12.5v-7c1.083 0 2.208-.5 3.374-1.5 1.25-1.126 1.896-2.459 1.938-4V13.25c0-1.25-.542-2.458-1.625-3.625-1.042-1.125-2.27-1.708-3.688-1.75V.937c4.209 0 7.584 1.813 10.126 5.438 1.458 2.083 2.187 4.042 2.187 5.875v20.563c0 4.624-2.063 8.166-6.188 10.624-2.166 1.25-4.208 1.876-6.124 1.876zM63.75 45V1.25h7V45h-7zm10.188-18.438v-6.25h3.5c3.624 0 5.624-1.729 6-5.187.041-.375.062-.73.062-1.063 0-3.5-1.583-5.562-4.75-6.187a12.807 12.807 0 00-1.813-.125h-3v-6.5h3.813c5.542.125 9.27 2.188 11.188 6.188.791 1.666 1.187 3.583 1.187 5.75-.042 4.624-1.458 7.979-4.25 10.062 2.167 1.25 3.542 3.48 4.125 6.688.083.541.146 1.041.188 1.5L91.25 45h-6.5l-.938-11.125c-.333-3.5-1.27-5.708-2.812-6.625-.917-.458-2.063-.688-3.438-.688h-3.624zm19.812-18.5V1.25h27.062v6.813h-10V45h-7V8.062H93.75zM124.438 45V1.25h22.75v6.875h-15.75V19.75h9.874v7h-9.874v11.313h15.75V45h-22.75zm27.812 0V12.375h.5l6.5 10.438V45h-7zm0-39.25v-4.5h5.812l22 35.313V45h-3.374L152.25 5.75zm20.812 13.75V1.25h7v28.688h-.5l-6.5-10.438z" fill="#fff"/></svg>